 <svg  version="1.0" xmlns="http://www.w3.org/2000/svg"  width="900.000000pt" height="900.000000pt" viewBox="0 0 900.000000 900.000000"  preserveAspectRatio="xMidYMid meet">  <g transform="translate(0.000000,900.000000) scale(0.100000,-0.100000)" fill="#ff0000" stroke="none"> <path d="M4384 8991 c10 -16 -24 -21 -222 -32 -108 -5 -199 -12 -204 -15 -4 -3 -47 -9 -95 -14 -48 -6 -108 -14 -133 -20 -25 -5 -72 -14 -105 -21 -115 -21 -262 -56 -355 -84 -30 -9 -68 -20 -85 -24 -64 -17 -230 -74 -240 -83 -5 -4 -15 -8 -23 -8 -8 0 -28 -6 -45 -14 -18 -7 -88 -37 -157 -67 -135 -57 -374 -176 -456 -227 -28 -18 -54 -32 -58 -32 -4 0 -26 -13 -49 -29 -23 -16 -87 -58 -142 -94 -130 -85 -211 -143 -244 -173 -14 -13 -29 -24 -33 -24 -3 0 -13 -6 -20 -13 -7 -7 -51 -44 -98 -82 -321 -263 -653 -634 -877 -980 -18 -27 -36 -54 -40 -60 -12 -13 -102 -165 -144 -240 -40 -73 -129 -252 -158 -320 -12 -27 -26 -59 -31 -70 -5 -11 -18 -42 -30 -70 -12 -27 -28 -64 -36 -82 -8 -17 -14 -37 -14 -45 0 -8 -4 -18 -8 -24 -5 -5 -26 -63 -47 -129 -21 -66 -41 -129 -45 -140 -5 -11 -13 -40 -20 -65 -6 -25 -19 -76 -29 -115 -31 -119 -53 -216 -61 -269 -5 -28 -16 -94 -24 -146 -9 -52 -21 -147 -26 -210 -6 -63 -15 -158 -20 -210 -13 -122 -13 -437 0 -560 5 -52 14 -144 20 -205 11 -123 31 -262 54 -375 9 -41 20 -97 25 -125 6 -27 15 -66 20 -85 6 -19 17 -60 25 -90 38 -140 58 -206 65 -220 5 -9 12 -31 16 -50 4 -19 11 -41 15 -50 5 -8 16 -37 25 -65 10 -27 23 -63 30 -80 7 -16 29 -70 50 -120 40 -97 144 -313 198 -411 44 -80 169 -288 177 -294 3 -3 17 -23 30 -45 13 -22 28 -44 32 -50 4 -5 58 -77 119 -160 62 -82 117 -155 123 -161 6 -6 42 -47 80 -90 157 -178 411 -420 581 -554 39 -30 75 -58 80 -63 43 -34 219 -159 255 -181 25 -15 54 -32 65 -39 11 -7 22 -15 25 -18 11 -12 128 -79 139 -79 6 0 11 -4 11 -8 0 -4 15 -15 33 -23 17 -9 88 -45 157 -80 174 -89 278 -135 445 -197 195 -73 423 -143 563 -173 206 -44 327 -65 462 -80 52 -5 131 -14 175 -20 169 -22 924 0 1045 30 19 5 62 12 95 16 33 3 76 10 95 15 19 5 71 17 115 26 76 16 215 50 300 74 104 30 412 138 480 169 237 109 352 165 431 212 33 20 70 40 82 43 12 4 22 11 22 16 0 4 8 10 18 12 29 8 273 171 407 272 310 233 632 550 850 836 27 36 53 70 57 75 174 219 388 594 536 935 59 137 179 488 202 593 5 23 17 71 26 107 37 148 68 325 85 485 16 154 23 190 37 187 9 -1 12 79 12 359 0 314 -2 363 -15 373 -12 8 -18 44 -26 136 -5 69 -12 131 -14 139 -3 8 -10 46 -15 85 -6 39 -14 91 -20 116 -5 25 -19 90 -31 145 -11 55 -25 114 -30 130 -4 17 -16 57 -25 90 -26 97 -75 253 -94 300 -4 11 -16 43 -25 70 -18 53 -26 71 -70 175 -57 132 -117 260 -175 369 -21 39 -204 347 -209 351 -4 3 -28 39 -56 80 -45 68 -147 206 -194 263 -10 12 -45 54 -77 92 -93 112 -241 266 -380 395 -133 124 -159 146 -309 263 -43 33 -190 139 -230 167 -221 148 -598 349 -806 430 -30 11 -68 27 -86 35 -17 8 -37 15 -45 15 -8 0 -18 4 -24 9 -8 8 -121 46 -226 77 -27 8 -72 21 -100 30 -90 27 -238 62 -353 83 -33 7 -80 16 -105 21 -25 6 -85 14 -133 20 -48 5 -91 11 -95 14 -4 3 -100 10 -212 16 -158 8 -208 14 -216 25 -9 12 -36 15 -118 15 -61 0 -105 -4 -102 -9z m381 -462 c360 -34 521 -61 760 -124 140 -37 324 -95 382 -121 17 -8 36 -14 42 -14 6 0 19 -4 29 -10 17 -9 73 -34 142 -61 87 -35 427 -212 498 -260 24 -16 47 -29 52 -29 4 0 10 -4 12 -8 2 -4 21 -19 43 -32 22 -13 45 -28 50 -32 6 -5 69 -51 140 -104 72 -53 132 -99 135 -103 3 -3 27 -24 55 -46 76 -61 158 -138 289 -270 100 -102 152 -160 285 -320 40 -49 140 -186 182 -250 102 -155 139 -214 139 -219 0 -3 19 -38 43 -78 23 -40 63 -116 89 -168 46 -94 57 -119 98 -215 11 -27 25 -58 30 -67 6 -10 10 -23 10 -30 1 -7 9 -31 20 -53 11 -22 19 -47 20 -56 0 -9 3 -19 7 -23 9 -9 18 -38 79 -238 116 -388 170 -880 146 -1330 -17 -303 -52 -544 -114 -777 -11 -42 -24 -94 -30 -116 -5 -22 -13 -49 -18 -60 -4 -11 -18 -51 -30 -90 -24 -77 -65 -193 -86 -240 -7 -16 -30 -70 -50 -120 -56 -132 -163 -339 -244 -473 -25 -40 -50 -81 -55 -90 -34 -58 -262 -372 -284 -392 -3 -3 -37 -41 -75 -85 -106 -122 -249 -266 -371 -373 -60 -53 -112 -99 -115 -103 -28 -32 -364 -268 -488 -343 -137 -83 -501 -266 -528 -266 -3 0 -24 -8 -47 -19 -56 -24 -166 -64 -252 -91 -38 -12 -79 -26 -90 -30 -47 -19 -291 -77 -445 -105 -445 -83 -1002 -83 -1445 -2 -140 26 -196 38 -274 59 -42 11 -94 24 -116 30 -22 5 -49 13 -60 18 -11 4 -51 18 -90 30 -86 27 -196 67 -252 91 -23 11 -44 19 -47 19 -9 0 -139 60 -266 123 -108 53 -365 200 -380 216 -3 3 -32 24 -65 46 -89 59 -249 178 -345 259 -137 114 -417 397 -515 521 -22 28 -43 52 -46 55 -11 10 -155 207 -190 260 -73 111 -114 175 -120 191 -4 8 -24 44 -46 80 -55 92 -222 433 -223 457 -1 4 -9 25 -20 47 -11 22 -19 47 -20 56 0 8 -4 19 -9 25 -15 17 -117 347 -145 474 -47 205 -61 296 -96 601 -13 111 -13 547 0 658 25 220 31 271 44 346 20 114 43 234 56 280 23 89 30 113 51 185 25 88 77 246 89 275 5 11 19 45 30 75 11 30 25 64 30 75 5 11 18 43 30 70 41 96 162 331 228 440 62 105 197 307 233 350 9 11 63 79 120 150 174 218 458 489 714 682 115 87 312 216 388 255 23 12 44 25 47 28 5 6 326 165 365 181 62 25 122 51 137 59 10 6 23 10 29 10 6 0 25 6 42 14 78 35 345 115 497 150 146 34 310 61 460 76 58 6 139 15 180 19 113 12 420 12 545 0z"/> <path d="M2837 7193 c-7 -11 -15 -816 -28 -2577 -5 -786 -12 -1432 -14 -1436 -6 -10 -7 -1211 -1 -1217 3 -3 18 4 34 16 17 12 33 21 37 21 4 0 41 20 82 45 40 25 76 45 80 45 3 0 39 20 80 45 40 25 76 45 79 45 4 0 45 23 93 51 47 28 94 55 104 60 10 6 48 26 85 46 37 20 83 46 102 58 20 12 60 36 90 52 30 16 98 53 150 83 52 29 119 66 148 81 28 16 70 40 92 54 22 14 42 25 46 25 4 0 40 20 81 45 40 25 76 45 80 45 3 0 39 20 80 45 40 25 76 45 80 45 3 0 31 15 62 34 31 19 76 45 101 58 123 67 188 103 220 123 19 12 65 38 102 58 37 20 75 40 85 46 10 5 57 32 104 60 48 28 89 51 93 51 3 0 35 18 71 40 36 22 68 40 71 40 4 0 40 20 81 45 40 25 76 45 80 45 3 0 39 20 80 45 40 25 76 45 80 45 3 0 31 15 62 34 31 19 76 45 101 58 25 14 86 47 135 75 50 28 106 59 125 69 19 11 37 21 40 24 3 3 21 13 40 24 19 10 76 41 125 69 50 28 115 64 145 80 30 16 72 40 92 53 21 13 40 24 44 24 4 0 40 20 81 45 40 25 76 45 80 45 3 0 39 20 80 45 40 25 76 45 80 45 3 0 39 20 80 45 40 25 76 45 79 45 3 0 36 18 72 40 81 48 159 91 230 127 29 14 51 31 49 37 -4 11 -124 86 -230 144 -32 18 -130 75 -218 127 -87 52 -161 95 -163 95 -3 0 -80 46 -173 101 -92 56 -175 104 -183 107 -8 3 -92 52 -187 109 -95 57 -175 103 -177 103 -2 0 -91 52 -196 115 -106 63 -194 115 -197 115 -2 0 -76 43 -164 95 -87 52 -161 95 -163 95 -3 0 -92 52 -198 116 -106 64 -200 119 -208 122 -8 3 -89 51 -180 105 -91 55 -172 102 -180 105 -8 3 -88 50 -178 104 -90 54 -166 98 -169 98 -3 0 -64 36 -137 79 -72 43 -147 88 -166 100 -19 11 -46 26 -60 33 -14 7 -98 57 -188 110 -90 54 -166 98 -169 98 -3 0 -87 50 -188 110 -101 61 -185 110 -188 110 -3 0 -62 34 -130 75 -137 83 -153 90 -160 78z"/> </g> </svg> 